<svg id="Слой_1" data-name="Слой 1" xmlns="http://www.w3.org/2000/svg" width="72" height="72" viewBox="0 0 72 72"><title>header-rss-icon</title><path d="M16.32,55.66a9.47,9.47,0,0,1,0,13.46h0a9.58,9.58,0,0,1-13.51,0,9.48,9.48,0,0,1,0-13.47h0a9.55,9.55,0,0,1,13.51,0Zm0,0h0ZM2.8,69.12h0ZM0,24.48V38.23a33.53,33.53,0,0,1,23.82,9.9A33.61,33.61,0,0,1,33.7,72h0v0H47.51A47.41,47.41,0,0,0,33.57,38.43,47.34,47.34,0,0,0,0,24.48ZM0,0V13.74A58.33,58.33,0,0,1,58.22,72H72A71.8,71.8,0,0,0,50.89,21.13,71.74,71.74,0,0,0,0,0ZM0,0"/></svg>