<svg id="Слой_1" data-name="Слой 1" xmlns="http://www.w3.org/2000/svg" xmlns:xlink="http://www.w3.org/1999/xlink" width="409.6" height="409.6" viewBox="0 0 409.6 409.6"><defs><style>.cls-1{fill:none;}.cls-2{clip-path:url(#clip-path);}</style><clipPath id="clip-path" transform="translate(-101 -191)"><rect class="cls-1" x="101" y="191" width="409.92" height="410"/></clipPath></defs><title>header-search-icon</title><g class="cls-2"><path d="M408.2,344.6A153.6,153.6,0,1,0,254.6,498.2,153.6,153.6,0,0,0,408.2,344.6ZM254.6,459.8A115.2,115.2,0,1,1,369.8,344.6,115.33,115.33,0,0,1,254.6,459.8Zm0,0" transform="translate(-101 -191)"/><path d="M499.35,535.05l-94-94a180.78,180.78,0,0,1-54.3,54.3l94,94a38.4,38.4,0,1,0,54.3-54.3Zm0,0" transform="translate(-101 -191)"/></g></svg>